<svg width="109" height="30" viewBox="0 0 109 30" fill="none" xmlns="http://www.w3.org/2000/svg">
<path d="M50.4414 20.1836C51.151 20.6914 51.9225 21.0951 52.7559 21.3945L51.6914 23.4355C51.2552 23.3053 50.8288 23.1263 50.4121 22.8984C50.321 22.8529 49.6797 22.4297 48.4883 21.6289C47.5508 22.0391 46.5124 22.2441 45.373 22.2441C43.1725 22.2441 41.4473 21.5964 40.1973 20.3008C38.9538 19.0052 38.332 17.1855 38.332 14.8418C38.332 12.5046 38.957 10.6882 40.207 9.39258C41.457 8.09049 43.153 7.43945 45.2949 7.43945C47.4173 7.43945 49.1003 8.09049 50.3438 9.39258C51.5872 10.6882 52.209 12.5046 52.209 14.8418C52.209 16.0788 52.0365 17.166 51.6914 18.1035C51.431 18.8197 51.0143 19.513 50.4414 20.1836ZM48.1172 18.5527C48.4883 18.1165 48.765 17.5892 48.9473 16.9707C49.1361 16.3522 49.2305 15.6426 49.2305 14.8418C49.2305 13.1882 48.8659 11.9544 48.1367 11.1406C47.4076 10.3203 46.4538 9.91016 45.2754 9.91016C44.097 9.91016 43.14 10.3203 42.4043 11.1406C41.6751 11.9609 41.3105 13.1947 41.3105 14.8418C41.3105 16.515 41.6751 17.7682 42.4043 18.6016C43.14 19.4284 44.0677 19.8418 45.1875 19.8418C45.6042 19.8418 45.998 19.7734 46.3691 19.6367C45.7832 19.2526 45.1875 18.9531 44.582 18.7383L45.3926 17.0879C46.3431 17.4134 47.2513 17.9017 48.1172 18.5527ZM54.4941 22V7.68359H60.5781C62.1081 7.68359 63.2181 7.8138 63.9082 8.07422C64.6048 8.32812 65.1615 8.78385 65.5781 9.44141C65.9948 10.099 66.2031 10.8509 66.2031 11.6973C66.2031 12.7715 65.8874 13.6602 65.2559 14.3633C64.6243 15.0599 63.6803 15.4993 62.4238 15.6816C63.0488 16.0462 63.5632 16.4466 63.9668 16.8828C64.377 17.319 64.9271 18.0938 65.6172 19.207L67.3652 22H63.9082L61.8184 18.8848C61.0762 17.7715 60.5684 17.0716 60.2949 16.7852C60.0215 16.4922 59.7318 16.2936 59.4258 16.1895C59.1198 16.0788 58.6348 16.0234 57.9707 16.0234H57.3848V22H54.4941ZM57.3848 13.7383H59.5234C60.9102 13.7383 61.776 13.6797 62.1211 13.5625C62.4661 13.4453 62.7363 13.2435 62.9316 12.957C63.127 12.6706 63.2246 12.3125 63.2246 11.8828C63.2246 11.401 63.0944 11.0137 62.834 10.7207C62.5801 10.4212 62.2188 10.2324 61.75 10.1543C61.5156 10.1217 60.8125 10.1055 59.6406 10.1055H57.3848V13.7383ZM68.6055 18.1816V15.4375H73.9961V18.1816H68.6055ZM75.4707 11.6289H78.2051V15.8672C78.6608 15.8151 78.9831 15.6751 79.1719 15.4473C79.3607 15.2194 79.5885 14.7214 79.8555 13.9531C80.207 12.931 80.5911 12.2767 81.0078 11.9902C81.4245 11.7038 81.9714 11.5605 82.6484 11.5605C82.8568 11.5605 83.2181 11.5768 83.7324 11.6094L83.7422 13.4258C83.0195 13.4258 82.5573 13.4941 82.3555 13.6309C82.1536 13.7741 81.9355 14.2005 81.7012 14.9102C81.3822 15.8672 80.9232 16.4564 80.3242 16.6777C81.1901 16.9186 81.9225 17.6706 82.5215 18.9336C82.554 18.9987 82.5898 19.0671 82.6289 19.1387L84.1621 22H81.2129L79.8457 19.002C79.5658 18.3965 79.3216 18.0091 79.1133 17.8398C78.9115 17.6641 78.6087 17.5762 78.2051 17.5762V22H75.4707V11.6289ZM84.6895 16.668C84.6895 15.7565 84.9141 14.8743 85.3633 14.0215C85.8125 13.1686 86.4473 12.5176 87.2676 12.0684C88.0944 11.6191 89.0156 11.3945 90.0312 11.3945C91.6003 11.3945 92.8861 11.9056 93.8887 12.9277C94.8913 13.9434 95.3926 15.2292 95.3926 16.7852C95.3926 18.3542 94.8848 19.6562 93.8691 20.6914C92.86 21.7201 91.5872 22.2344 90.0508 22.2344C89.1003 22.2344 88.1921 22.0195 87.3262 21.5898C86.4668 21.1602 85.8125 20.5319 85.3633 19.7051C84.9141 18.8717 84.6895 17.8594 84.6895 16.668ZM87.502 16.8145C87.502 17.8431 87.7461 18.6309 88.2344 19.1777C88.7227 19.7246 89.3249 19.998 90.041 19.998C90.7572 19.998 91.3561 19.7246 91.8379 19.1777C92.3262 18.6309 92.5703 17.8366 92.5703 16.7949C92.5703 15.7793 92.3262 14.998 91.8379 14.4512C91.3561 13.9043 90.7572 13.6309 90.041 13.6309C89.3249 13.6309 88.7227 13.9043 88.2344 14.4512C87.7461 14.998 87.502 15.7858 87.502 16.8145ZM105.852 22H98V24.7344H95.7734V19.7539H96.8965C97.3652 19.2331 97.7526 18.4193 98.0586 17.3125C98.3646 16.2057 98.5469 14.3112 98.6055 11.6289H106.975V19.7539H108.088V24.7344H105.852V22ZM104.26 19.7539L104.27 13.8848H100.949C100.839 16.7493 100.383 18.7057 99.582 19.7539H104.26Z" fill="#222426" fill-opacity="0.85"/>
<path d="M15.3333 27H12.7778V24.4444H15.3333V27ZM12.7778 18.0556H10.2222V24.4444H12.7778V18.0556ZM23 15.5H20.4444V20.6111H23V15.5ZM20.4444 12.9444H17.8889V15.5H20.4444V12.9444ZM5.11111 15.5H2.55556V18.0556H5.11111V15.5ZM2.55556 12.9444H0V15.5H2.55556V12.9444ZM11.5 6.55556H14.0556V4H11.5V6.55556ZM1.91667 5.91667V9.75H5.75V5.91667H1.91667ZM7.66667 11.6667H0V4H7.66667V11.6667ZM1.91667 21.25V25.0833H5.75V21.25H1.91667ZM7.66667 27H0V19.3333H7.66667V27ZM17.25 5.91667V9.75H21.0833V5.91667H17.25ZM23 11.6667H15.3333V4H23V11.6667ZM20.4444 24.4444V20.6111H15.3333V23.1667H17.8889V27H23V24.4444H20.4444ZM17.8889 15.5H12.7778V18.0556H17.8889V15.5ZM12.7778 12.9444H5.11111V15.5H7.66667V18.0556H10.2222V15.5H12.7778V12.9444ZM14.0556 11.6667V9.11111H11.5V6.55556H8.94444V11.6667H14.0556ZM4.79167 6.875H2.875V8.79167H4.79167V6.875ZM4.79167 22.2083H2.875V24.125H4.79167V22.2083ZM20.125 6.875H18.2083V8.79167H20.125V6.875Z" fill="black"/>
</svg>
