<svg width="27" height="5" viewBox="0 0 27 5" fill="none" xmlns="http://www.w3.org/2000/svg">
<path d="M5.00101 2.5C5.00101 3.88071 3.88172 5 2.50101 5C1.1203 5 0.00100708 3.88071 0.00100708 2.5C0.00100708 1.11929 1.1203 0 2.50101 0C3.88172 0 5.00101 1.11929 5.00101 2.5Z" fill="#939CB0"/>
<path d="M16.001 2.5C16.001 3.88071 14.8817 5 13.501 5C12.1203 5 11.001 3.88071 11.001 2.5C11.001 1.11929 12.1203 0 13.501 0C14.8817 0 16.001 1.11929 16.001 2.5Z" fill="#939CB0"/>
<path d="M27.001 2.5C27.001 3.88071 25.8817 5 24.501 5C23.1203 5 22.001 3.88071 22.001 2.5C22.001 1.11929 23.1203 0 24.501 0C25.8817 0 27.001 1.11929 27.001 2.5Z" fill="#939CB0"/>
</svg>
